<svg xmlns="http://www.w3.org/2000/svg" width="181" height="181" viewBox="0 0 181 181">
  <defs>
    <style>
      .cls-1 {
        fill: #fff;
        stroke: #000;
        stroke-width: 1px;
        fill-rule: evenodd;
      }
    </style>
  </defs>
  <path id="fa-code_xf121_1" data-name="fa-code [&amp;#xf121;] 1" class="cls-1" d="M828,360a90,90,0,1,1-90,90A90,90,0,0,1,828,360ZM804.565,481.51a2.413,2.413,0,0,0-.749-1.743L774.392,450l29.424-29.77a2.4,2.4,0,0,0,0-3.485l-3.743-3.787a2.335,2.335,0,0,0-3.444,0l-34.89,35.3a2.4,2.4,0,0,0,0,3.485l34.89,35.3a2.335,2.335,0,0,0,3.444,0l3.743-3.787A2.406,2.406,0,0,0,804.565,481.51Zm43.313-80.939a2.452,2.452,0,0,0-1.46-1.175l-4.642-1.287a2.068,2.068,0,0,0-1.759.189,2.457,2.457,0,0,0-1.161,1.477l-27.927,97.794a2.289,2.289,0,0,0,.187,1.856,2.445,2.445,0,0,0,1.46,1.174l4.642,1.288a2.075,2.075,0,0,0,1.76-.19,2.466,2.466,0,0,0,1.16-1.477l27.927-97.794A2.294,2.294,0,0,0,847.878,400.571ZM898.005,450a2.417,2.417,0,0,0-.749-1.743l-34.89-35.3a2.335,2.335,0,0,0-3.444,0l-3.744,3.787a2.4,2.4,0,0,0,0,3.485L884.6,450l-29.425,29.769a2.4,2.4,0,0,0,0,3.485l3.744,3.787a2.335,2.335,0,0,0,3.444,0l34.89-35.3A2.412,2.412,0,0,0,898.005,450Z" transform="translate(-737.5 -359.5)"/>
</svg>
