<svg xmlns="http://www.w3.org/2000/svg" width="100.969" height="100.938" viewBox="0 0 100.969 100.938">
  <defs>
    <style>
      .cls-1 {
        fill: #fff;
        stroke: #000;
        stroke-width: 1px;
        fill-rule: evenodd;
      }
    </style>
  </defs>
  <path id="Github_1" data-name="Github 1" class="cls-1" d="M538.644,510.98a0.618,0.618,0,0,1,.86-0.16,0.648,0.648,0,0,1,.445.773,0.62,0.62,0,0,1-.857.157A0.653,0.653,0,0,1,538.644,510.98Zm2.309,2.691a0.8,0.8,0,0,1-.147-1.064,0.762,0.762,0,0,1,1.025.237,0.786,0.786,0,0,1,.143,1.064A0.757,0.757,0,0,1,540.953,513.671Zm1.874,2.746a0.9,0.9,0,0,1,.008-1.221,0.869,0.869,0,0,1,1.117.43,0.922,0.922,0,0,1-.008,1.233A0.872,0.872,0,0,1,542.827,516.417Zm2.533,3.1a1,1,0,0,1-.285-1.309,0.936,0.936,0,0,1,1.295.2,0.982,0.982,0,0,1,.274,1.309A0.92,0.92,0,0,1,545.36,519.513Zm3.76,2.265a0.991,0.991,0,0,1-.821-1.051,0.948,0.948,0,0,1,1.252-.412,0.983,0.983,0,0,1,.818,1.05A0.962,0.962,0,0,1,549.12,521.778Zm3.191-.07a0.967,0.967,0,0,1,1.067-.784A0.81,0.81,0,1,1,552.311,521.708Zm3.832-.306a0.981,0.981,0,0,1,.928-0.956,0.956,0.956,0,0,1,1.195.562,0.98,0.98,0,0,1-.932.948A0.959,0.959,0,0,1,556.143,521.4Zm30.688,16.475c-2.533.5-3.433-1.095-3.433-2.459,0-1.688.058-7.205,0.058-14.06,0-4.78-1.6-7.9-3.39-9.488,11.13-1.268,22.823-5.6,22.823-25.28a20.067,20.067,0,0,0-5.144-13.752c0.519-1.291,2.23-6.5-.491-13.559,0,0-4.191-1.377-13.731,5.252a46.3,46.3,0,0,0-25.033,0c-9.551-6.629-13.748-5.252-13.748-5.252-2.715,7.057-1,12.268-.485,13.559a20.108,20.108,0,0,0-5.15,13.752c0,19.632,11.671,24.025,22.773,25.32a11.015,11.015,0,0,0-3.173,6.852c-2.853,1.309-10.088,3.573-14.546-4.259,0,0-2.643-4.919-7.662-5.28,0,0-4.877-.066-0.342,3.114,0,0,3.276,1.575,5.55,7.5,0,0,2.934,9.145,16.84,6.045,0.022,4.281.067,8.318,0.067,9.539,0,1.353-.917,2.939-3.415,2.465-19.86-6.775-34.182-25.98-34.182-48.617,0-28.3,22.383-51.235,49.984-51.235s49.984,22.938,49.984,51.235C620.985,511.9,606.681,531.094,586.831,537.877Z" transform="translate(-520.531 -437.531)"/>
</svg>
