<svg xmlns="http://www.w3.org/2000/svg" width="101" height="101" viewBox="0 0 101 101">
  <defs>
    <style>
      .cls-1 {
        fill: #fff;
        stroke: #000;
        stroke-width: 1px;
        fill-rule: evenodd;
      }
    </style>
  </defs>
  <path id="LinkedIn_1" data-name="LinkedIn 1" class="cls-1" d="M403,500a50,50,0,1,1,50-50A50,50,0,0,1,403,500Zm27.847-73.814a4.076,4.076,0,0,0-4.124-4.025H379.179a4.075,4.075,0,0,0-4.125,4.025v48.1a4.073,4.073,0,0,0,4.125,4.025h47.545a4.074,4.074,0,0,0,4.124-4.025v-48.1ZM413.926,455.6c0-3.406-1.217-5.734-4.269-5.734a4.624,4.624,0,0,0-4.324,3.085,5.773,5.773,0,0,0-.278,2.055v14.157H396.63s0.109-22.973,0-25.349h8.425V447.4a0.716,0.716,0,0,1-.055.084h0.055V447.4a8.369,8.369,0,0,1,7.6-4.183c5.544,0,9.7,3.62,9.7,11.409v14.534h-8.428V455.6Zm-26.173-15.248H387.7a4.365,4.365,0,0,1-4.656-4.382c0-2.486,1.886-4.382,4.767-4.382a4.384,4.384,0,0,1,4.714,4.382C392.522,438.4,390.691,440.351,387.753,440.351Zm4.215,28.811h-8.429V443.813h8.429v25.349Z" transform="translate(-352.5 -399.5)"/>
</svg>
